# Exported from Wings 3D 1.5.2
mtllib PivotMesh.mtl
o PivotMesh
#36 vertices, 30 faces
v -1.00000000 -1.00000000 -1.00000000
v -1.00000000 -1.00000000 1.00000000
v 1.00000000 -1.00000000 -1.00000000
v 1.00000000 -1.00000000 1.00000000
v -0.57994220 -1.00000000 -1.00000000
v 0.57994220 -1.00000000 -1.00000000
v -0.57994220 -1.00000000 1.00000000
v 0.57994220 -1.00000000 1.00000000
v 0.57994220 0.66219369 -0.25400000
v 0.57994220 0.15419369 -0.25400000
v 0.57994220 0.15419369 0.25400000
v 0.57994220 0.66219369 0.25400000
v -0.57994220 0.15419369 0.25400000
v -0.57994220 0.15419369 -0.25400000
v -0.57994220 0.66219369 -0.25400000
v -0.57994220 0.66219369 0.25400000
v -1.00000000 1.00000000 -0.63270049
v -1.00000000 0.63270049 -1.00000000
v -1.00000000 1.00000000 0.63270049
v -1.00000000 0.63270049 1.00000000
v 1.00000000 1.00000000 -0.63270049
v 1.00000000 0.63270049 -1.00000000
v 1.00000000 1.00000000 0.63270049
v 1.00000000 0.63270049 1.00000000
v -0.57994220 1.00000000 -0.63270049
v -0.57994220 0.84848804 -0.66540613
v -0.57994220 0.63270049 -1.00000000
v 0.57994220 1.00000000 -0.63270049
v 0.57994220 0.84848804 -0.66540613
v 0.57994220 0.63270049 -1.00000000
v -0.57994220 1.00000000 0.63270049
v -0.57994220 0.63270049 1.00000000
v -0.57994220 0.84848804 0.66540613
v 0.57994220 1.00000000 0.63270049
v 0.57994220 0.84848804 0.66540613
v 0.57994220 0.63270049 1.00000000
vt 0.0000000e+0 0.0000000e+0
vt 0.0000000e+0 0.28986105
vt 0.0000000e+0 0.35506947
vt 0.0000000e+0 0.64493053
vt 0.0000000e+0 0.71013895
vt 0.0000000e+0 1.00000000
vt 5.9402035e-2 0.32817084
vt 6.5208422e-2 0.35506947
vt 6.5208422e-2 0.71013895
vt 7.4574851e-2 0.71013895
vt 7.4574851e-2 1.00000000
vt 7.4574851e-2 0.71013895
vt 7.4574851e-2 1.00000000
vt 0.13244091 0.20490947
vt 0.13244091 0.29509712
vt 0.14914970 0.71013895
vt 0.14914970 1.00000000
vt 0.14914970 0.71013895
vt 0.14914970 0.80032659
vt 0.22262856 0.20490947
vt 0.22262856 0.29509712
vt 0.28986105 0.35506947
vt 0.28986105 0.71013895
vt 0.29566744 0.32817084
vt 0.35506947 0.0000000e+0
vt 0.35506947 0.28986105
vt 0.35506947 0.35506947
vt 0.35506947 0.64493053
vt 0.35506947 0.64493053
vt 0.35506947 0.71013895
vt 0.35506947 0.80032659
vt 0.35506947 0.71013895
vt 0.41447151 0.68324031
vt 0.42027790 0.35506947
vt 0.42027790 0.71013895
vt 0.48751039 0.55997895
vt 0.48751039 0.65016659
vt 0.56098925 0.71013895
vt 0.56098925 0.71013895
vt 0.56098925 0.80032659
vt 0.56098925 0.80032659
vt 0.56098925 0.89051424
vt 0.57769803 0.55997895
vt 0.57769803 0.65016659
vt 0.64493053 0.35506947
vt 0.64493053 0.71013895
vt 0.65073691 0.68324031
vt 0.71013895 0.0000000e+0
vt 0.71013895 2.7755576e-17
vt 0.71013895 0.28986105
vt 0.71013895 0.35506947
vt 0.71013895 0.64493053
vt 0.71013895 0.71013895
vt 0.76690902 0.71013895
vt 0.76690902 0.80032659
vt 0.76690902 0.80032659
vt 0.76690902 0.89051424
vt 0.78471380 0.0000000e+0
vt 0.78471380 6.5208422e-2
vt 0.78471380 0.28986105
vt 0.78471380 0.35506947
vt 0.78471380 0.42027790
vt 0.78471380 0.64493053
vt 0.78471380 0.71013895
vt 0.78471380 0.0000000e+0
vt 0.78471380 0.35506947
vt 0.78471380 0.71013895
vt 0.85928865 2.7755576e-17
vt 0.85928865 0.28986105
vt 0.85928865 0.28986105
vt 0.85928865 0.57972210
vt 0.85928865 0.0000000e+0
vt 0.85928865 6.5208422e-2
vt 0.85928865 0.28986105
vt 0.85928865 0.35506947
vt 0.85928865 0.42027790
vt 0.85928865 0.64493053
vt 0.85928865 0.71013895
vt 0.93386350 0.0000000e+0
vt 0.93386350 0.28986105
vt 0.93386350 0.28986105
vt 0.93386350 0.57972210
vn -0.57735027 -0.57735027 -0.57735027
vn -0.57735027 -0.57735027 0.57735027
vn 0.57735027 -0.57735027 -0.57735027
vn 0.57735027 -0.57735027 0.57735027
vn 0.81649658 -0.40824829 -0.40824829
vn -0.81649658 -0.40824829 -0.40824829
vn 0.81649658 -0.40824829 0.40824829
vn -0.81649658 -0.40824829 0.40824829
vn -0.81649658 0.40824829 -0.40824829
vn -0.81649658 -0.40824829 -0.40824829
vn -0.81649658 -0.40824829 0.40824829
vn -0.81649658 0.40824829 0.40824829
vn 0.81649658 -0.40824829 0.40824829
vn 0.81649658 -0.40824829 -0.40824829
vn 0.81649658 0.40824829 -0.40824829
vn 0.81649658 0.40824829 0.40824829
vn -0.47596315 0.81251992 -0.33655677
vn -0.47596315 0.33655677 -0.81251992
vn -0.47596315 0.81251992 0.33655677
vn -0.47596315 0.33655677 0.81251992
vn 0.47596315 0.81251992 -0.33655677
vn 0.47596315 0.33655677 -0.81251992
vn 0.47596315 0.81251992 0.33655677
vn 0.47596315 0.33655677 0.81251992
vn 0.73450956 0.62694312 -0.25968834
vn 1.00000000 -5.0287464e-17 0.0000000e+0
vn 0.73450956 0.25968834 -0.62694312
vn -0.73450956 0.62694312 -0.25968834
vn -1.00000000 -5.0287464e-17 0.0000000e+0
vn -0.73450956 0.25968834 -0.62694312
vn 0.73450956 0.62694312 0.25968834
vn 0.73450956 0.25968834 0.62694312
vn 1.00000000 -5.0287464e-17 0.0000000e+0
vn -0.73450956 0.62694312 0.25968834
vn -1.00000000 -2.6230369e-16 0.0000000e+0
vn -0.73450956 0.25968834 0.62694312
g PivotMesh_Cube1_auv
usemtl Cube1_auv
s 1
f 1/66/1 5/51/5 7/49/7 2/65/2
f 2/5/2 7/12/7 32/13/32 20/6/20
f 2/48/2 20/50/20 19/45/19 17/34/17 18/26/18 1/25/1
f 3/70/3 6/81/6 30/82/30 22/71/22
f 3/27/3 22/28/22 21/23/21 23/9/23 24/4/24 4/3/4
f 4/51/4 8/66/8 6/67/6 3/53/3
f 5/51/5 14/43/14 13/36/13 7/27/7
f 6/1/6 10/14/10 9/15/9 29/7/29 30/2/30
f 8/25/8 11/20/11 10/14/10 6/1/6
f 9/55/9 15/40/15 16/38/16 12/54/12
f 10/18/10 14/32/14 15/31/15 9/19/9
f 11/20/11 8/25/8 36/26/36 35/24/35 12/21/12
f 11/30/11 13/39/13 14/41/14 10/31/10
f 12/57/12 16/42/16 13/41/13 11/56/11
f 12/21/12 35/24/35 34/22/34 28/8/28 29/7/29 9/15/9
f 13/36/13 16/37/16 33/33/33 32/29/32 7/27/7
f 15/44/15 26/47/26 25/46/25 31/35/31 33/33/33 16/37/16
f 17/60/17 25/74/25 27/75/27 18/61/18
f 18/80/18 27/69/27 5/68/5 1/79/1
f 19/59/19 31/73/31 25/74/25 17/60/17
f 21/77/21 22/78/22 30/64/30 28/63/28
f 21/77/21 28/63/28 34/62/34 23/76/23
f 23/76/23 34/62/34 36/61/36 24/75/24
f 24/17/24 36/11/36 8/10/8 4/16/4
f 27/52/27 25/46/25 26/47/26
f 27/52/27 26/47/26 15/44/15 14/43/14 5/51/5
f 29/7/29 28/8/28 30/2/30
f 32/72/32 31/73/31 19/59/19 20/58/20
f 33/33/33 31/35/31 32/29/32
f 35/24/35 36/26/36 34/22/34
